<svg xmlns="http://www.w3.org/2000/svg" height="48" viewBox="0 0 24 24" width="48" fill="#3f51b5">
  <path d="M0 0h24v24H0z" fill="none"/>
  <path d="M12 5.9c1.16 0 2.1-.94 2.1-2.1S13.16 1.7 12 1.7 9.9 2.64 9.9 3.8s.94 2.1 2.1 2.1zM6.5 11.9c1.16 0 2.1-.94 2.1-2.1s-.94-2.1-2.1-2.1S4.4 8.64 4.4 9.8s.94 2.1 2.1 2.1zm11 0c1.16 0 2.1-.94 2.1-2.1s-.94-2.1-2.1-2.1-2.1.94-2.1 2.1.94 2.1 2.1 2.1zM6.5 13c-2.2 0-4 1.8-4 4v1h4v-1.5h1.5V17H8c0-1.1.9-2 2-2h.18c.31 0 .6.05.87.13A3.2 3.2 0 0 0 12 13.9c-1.33 0-2.57-.43-3.58-1.16-.34.18-.74.27-1.13.27-.13 0-.26-.01-.39-.02zM17.5 13c-1.8 0-3.2 1.4-3.2 3.2V17h6.4v-.8c0-1.8-1.4-3.2-3.2-3.2z"/>
</svg>
